# xmcd
#
# Track frame offsets: 
#        150
#        10215
#        20417
#        31407
#        45822
#        57662
#        70014
#        80466
#        90808
#        102658
#
# Disc length: 1526 seconds
#
# Revision: 0
# Processed by: cddbd v1.5.1PL0 Copyright (c) Steve Scherf et al.
# Submitted via: ExactAudioCopy v0.95a5
#
DISCID=6f05f40a
DTITLE=Conway Twitty - The Best Of Conway Twitty
DYEAR=1998
DGENRE=Classic Country
TTITLE0=It's Only Make Believe
TTITLE1=Lonely Blue Boy
TTITLE2=Mona Lisa
TTITLE3=I Need Your Lovin'
TTITLE4=Is A Bluebird Blue
TTITLE5=Danny Boy
TTITLE6=Halfway To Heaven
TTITLE7=Born To Sing The Blues
TTITLE8=Maybe Baby
TTITLE9=What Am I Living For
EXTD=
EXTT0=
EXTT1=
EXTT2=
EXTT3=
EXTT4=
EXTT5=
EXTT6=
EXTT7=
EXTT8=
EXTT9=
PLAYORDER=
